<?xml version="1.0" encoding="utf-8"?>
<!-- Generator: Adobe Illustrator 19.1.1, SVG Export Plug-In . SVG Version: 6.00 Build 0)  -->
<svg version="1.1" id="Layer_1" xmlns="http://www.w3.org/2000/svg" xmlns:xlink="http://www.w3.org/1999/xlink" x="0px" y="0px"
	 viewBox="0 0 48 48" style="enable-background:new 0 0 48 48;" xml:space="preserve">
<style type="text/css">
	.st0{fill:none;stroke:#F9ED32;stroke-linecap:round;stroke-miterlimit:10;}
	.st1{fill:#FFDE17;stroke:#FFFFFF;stroke-miterlimit:10;}
</style>
<line class="st0" x1="24" y1="24" x2="24" y2="2"/>
<line class="st0" x1="24" y1="24" x2="20.2" y2="2.3"/>
<line class="st0" x1="24" y1="24" x2="16.5" y2="3.3"/>
<line class="st0" x1="24" y1="24" x2="13" y2="4.9"/>
<line class="st0" x1="24" y1="24" x2="9.9" y2="7.1"/>
<line class="st0" x1="24" y1="24" x2="7.1" y2="9.9"/>
<line class="st0" x1="24" y1="24" x2="4.9" y2="13"/>
<line class="st0" x1="24" y1="24" x2="3.3" y2="16.5"/>
<line class="st0" x1="24" y1="24" x2="2.3" y2="20.2"/>
<line class="st0" x1="24" y1="24" x2="2" y2="24"/>
<line class="st0" x1="24" y1="24" x2="2.3" y2="27.8"/>
<line class="st0" x1="24" y1="24" x2="3.3" y2="31.5"/>
<line class="st0" x1="24" y1="24" x2="4.9" y2="35"/>
<line class="st0" x1="24" y1="24" x2="7.1" y2="38.1"/>
<line class="st0" x1="24" y1="24" x2="9.9" y2="40.9"/>
<line class="st0" x1="24" y1="24" x2="13" y2="43.1"/>
<line class="st0" x1="24" y1="24" x2="16.5" y2="44.7"/>
<line class="st0" x1="24" y1="24" x2="20.2" y2="45.7"/>
<line class="st0" x1="24" y1="24" x2="24" y2="46"/>
<line class="st0" x1="24" y1="24" x2="27.8" y2="45.7"/>
<line class="st0" x1="24" y1="24" x2="31.5" y2="44.7"/>
<line class="st0" x1="24" y1="24" x2="35" y2="43.1"/>
<line class="st0" x1="24" y1="24" x2="38.1" y2="40.9"/>
<line class="st0" x1="24" y1="24" x2="40.9" y2="38.1"/>
<line class="st0" x1="24" y1="24" x2="43.1" y2="35"/>
<line class="st0" x1="24" y1="24" x2="44.7" y2="31.5"/>
<line class="st0" x1="24" y1="24" x2="45.7" y2="27.8"/>
<line class="st0" x1="24" y1="24" x2="46" y2="24"/>
<line class="st0" x1="24" y1="24" x2="45.7" y2="20.2"/>
<line class="st0" x1="24" y1="24" x2="44.7" y2="16.5"/>
<line class="st0" x1="24" y1="24" x2="43.1" y2="13"/>
<line class="st0" x1="24" y1="24" x2="40.9" y2="9.9"/>
<line class="st0" x1="24" y1="24" x2="38.1" y2="7.1"/>
<line class="st0" x1="24" y1="24" x2="35" y2="4.9"/>
<line class="st0" x1="24" y1="24" x2="31.5" y2="3.3"/>
<line class="st0" x1="24" y1="24" x2="27.8" y2="2.3"/>
<circle class="st1" cx="24" cy="24" r="15"/>
</svg>
