<?xml version="1.0" encoding="utf-8"?>
<!-- Generator: Adobe Illustrator 19.1.1, SVG Export Plug-In . SVG Version: 6.00 Build 0)  -->
<svg version="1.1" id="Layer_1" xmlns="http://www.w3.org/2000/svg" xmlns:xlink="http://www.w3.org/1999/xlink" x="0px" y="0px"
	 viewBox="0 0 48 48" style="enable-background:new 0 0 48 48;" xml:space="preserve">
<style type="text/css">
	.st0{fill:none;stroke:#F9ED32;stroke-linecap:round;stroke-miterlimit:10;}
	.st1{fill:#FFDE17;stroke:#FFFFFF;stroke-miterlimit:10;}
</style>
<circle class="svgcontainer" cx="24" cy="24" r="22" stroke="black" stroke-width="2" fill="white" />
<line class="st0" x1="24" y1="24" x2="24" y2="4.2"/>
<line class="st0" x1="24" y1="24" x2="17.2" y2="5.4"/>
<line class="st0" x1="24" y1="24" x2="11.3" y2="8.8"/>
<line class="st0" x1="24" y1="24" x2="6.9" y2="14.1"/>
<line class="st0" x1="24" y1="24" x2="4.5" y2="20.6"/>
<line class="st0" x1="24" y1="24" x2="4.5" y2="27.4"/>
<line class="st0" x1="24" y1="24" x2="6.9" y2="33.9"/>
<line class="st0" x1="24" y1="24" x2="11.3" y2="39.2"/>
<line class="st0" x1="24" y1="24" x2="17.2" y2="42.6"/>
<line class="st0" x1="24" y1="24" x2="24" y2="43.8"/>
<line class="st0" x1="24" y1="24" x2="30.8" y2="42.6"/>
<line class="st0" x1="24" y1="24" x2="36.7" y2="39.2"/>
<line class="st0" x1="24" y1="24" x2="41.1" y2="33.9"/>
<line class="st0" x1="24" y1="24" x2="43.5" y2="27.4"/>
<line class="st0" x1="24" y1="24" x2="43.5" y2="20.6"/>
<line class="st0" x1="24" y1="24" x2="41.1" y2="14.1"/>
<line class="st0" x1="24" y1="24" x2="36.7" y2="8.8"/>
<line class="st0" x1="24" y1="24" x2="30.8" y2="5.4"/>
<circle class="st1" cx="24" cy="24" r="15"/>
</svg>
