<?xml version="1.0" encoding="utf-8"?>
<!-- Generator: Adobe Illustrator 19.1.1, SVG Export Plug-In . SVG Version: 6.00 Build 0)  -->
<svg version="1.1" id="Layer_1" xmlns="http://www.w3.org/2000/svg" xmlns:xlink="http://www.w3.org/1999/xlink" x="0px" y="0px"
	 viewBox="0 0 48 48" style="enable-background:new 0 0 48 48;" xml:space="preserve">
<style type="text/css">
	.st0{opacity:0.5;fill:#010101;}
	.st1{fill:#F3F3F3;}
	.st2{fill:#EC2227;}
	.st3{opacity:0.5;fill:url(#SVGID_1_);}
	.st4{fill:none;stroke:#9A1C25;stroke-width:0.7053;stroke-miterlimit:10;}
	.st5{fill:url(#SVGID_2_);}
	.st6{opacity:0.2;}
	.st7{fill:#FFFFFF;}
	.st8{fill:url(#SVGID_3_);}
	.st9{opacity:0.5;fill:none;stroke:url(#SVGID_4_);stroke-width:0.2351;stroke-miterlimit:10;}
	.st10{fill:url(#SVGID_5_);}
</style>
<g>
	<g>
		<path class="st0" d="M5.4,3.8v40.4c0,0.7,0.6,1.4,1.4,1.4h22.6c0.3,0,0.6-0.1,0.9-0.3c1.3-1.1,5.7-4.8,7-6.2
			c3.3-3.3,4.7-5.4,5.1-6.2c0.1-0.2,0.2-0.4,0.2-0.7V3.8c0-0.7-0.6-1.4-1.4-1.4H6.8C6,2.4,5.4,3,5.4,3.8z"/>
		<path class="st1" d="M5.9,3v42h23.8c0,0,5.6-4.8,7.2-6.3c4.2-4.2,5.2-6.3,5.2-6.3V3H5.9z"/>
		<path class="st0" d="M32.5,35.2c0,0,0.6,4.5-2.9,10c0,0,5.9-5,7.6-6.7c4.6-4.6,5.1-6.3,5.1-6.3C39.2,34.7,32.5,35.2,32.5,35.2z"/>
		<path class="st1" d="M33.2,35.7c0,0-0.2,4.9-3.3,9.1c0,0,5.6-4.8,7.2-6.3c4.2-4.2,5.2-6.3,5.2-6.3C41,34.7,33.2,35.7,33.2,35.7z"
			/>
	</g>
	<path class="st0" d="M24.1,11.8c-7,0.1-12.6,5.8-12.5,12.9c0.1,7,5.8,12.6,12.9,12.5c7-0.1,12.6-5.8,12.5-12.9
		C36.9,17.3,31.1,11.7,24.1,11.8z M23.8,16.8c1.1,0,2.5,0.1,3.4,0.5l-9.8,10.1c-0.5-0.9-0.7-2-0.7-3.1
		C16.6,20.7,20.1,16.9,23.8,16.8z M24.7,32.1c-1.2,0-2.4,0-3.4-0.6l10-10.1c0.6,1,0.7,2.1,0.7,3.4C32,28.6,28.5,32.1,24.7,32.1z"/>
	<g>
		<path class="st2" d="M24.2,12.7c-6.5,0.1-11.7,5.4-11.6,11.9c0.1,6.5,5.4,11.7,11.9,11.6c6.5-0.1,11.7-5.4,11.6-11.9
			C36,17.8,30.7,12.6,24.2,12.7z M24.2,16.3c1.4,0,2.7,0.3,3.9,0.9l-11,11.3c-0.6-1.1-1-2.5-1-3.8C16,20.1,19.7,16.3,24.2,16.3z
			 M24.4,32.7c-1.5,0-2.9-0.4-4.1-1l11.1-11.4c0.7,1.2,1.1,2.6,1.1,4.1C32.6,28.9,29,32.7,24.4,32.7z"/>
		<linearGradient id="SVGID_1_" gradientUnits="userSpaceOnUse" x1="12.5647" y1="24.4996" x2="36.1004" y2="24.4996">
			<stop  offset="0" style="stop-color:#010101"/>
			<stop  offset="0.1981" style="stop-color:#532820;stop-opacity:0.8028"/>
			<stop  offset="0.5025" style="stop-color:#ED2224;stop-opacity:0.5"/>
			<stop  offset="0.6142" style="stop-color:#B03026;stop-opacity:0.6123"/>
			<stop  offset="0.8665" style="stop-color:#40231D;stop-opacity:0.8658"/>
			<stop  offset="1" style="stop-color:#010101"/>
		</linearGradient>
		<path class="st3" d="M24.2,12.7c-6.5,0.1-11.7,5.4-11.6,11.9c0.1,6.5,5.4,11.7,11.9,11.6c6.5-0.1,11.7-5.4,11.6-11.9
			C36,17.8,30.7,12.6,24.2,12.7z M24.2,16.3c1.4,0,2.7,0.3,3.9,0.9l-11,11.3c-0.6-1.1-1-2.5-1-3.8C16,20.1,19.7,16.3,24.2,16.3z
			 M24.4,32.7c-1.5,0-2.9-0.4-4.1-1l11.1-11.4c0.7,1.2,1.1,2.6,1.1,4.1C32.6,28.9,29,32.7,24.4,32.7z"/>
		<path class="st4" d="M24.2,12.7c-6.5,0.1-11.7,5.4-11.6,11.9c0.1,6.5,5.4,11.7,11.9,11.6c6.5-0.1,11.7-5.4,11.6-11.9
			C36,17.8,30.7,12.6,24.2,12.7z M24.2,16.3c1.4,0,2.7,0.3,3.9,0.9l-11,11.3c-0.6-1.1-1-2.5-1-3.8C16,20.1,19.7,16.3,24.2,16.3z
			 M24.4,32.7c-1.5,0-2.9-0.4-4.1-1l11.1-11.4c0.7,1.2,1.1,2.6,1.1,4.1C32.6,28.9,29,32.7,24.4,32.7z"/>
		<g>
			<linearGradient id="SVGID_2_" gradientUnits="userSpaceOnUse" x1="24.3325" y1="36.2674" x2="24.3325" y2="12.7317">
				<stop  offset="0" style="stop-color:#F26A6B"/>
				<stop  offset="0.27" style="stop-color:#854848;stop-opacity:0.6057"/>
				<stop  offset="0.6847" style="stop-color:#010101;stop-opacity:0"/>
				<stop  offset="0.7114" style="stop-color:#2A1E1E;stop-opacity:8.474153e-002"/>
				<stop  offset="0.7511" style="stop-color:#533333;stop-opacity:0.2105"/>
				<stop  offset="0.7917" style="stop-color:#7B4444;stop-opacity:0.3392"/>
				<stop  offset="0.8324" style="stop-color:#A05252;stop-opacity:0.4684"/>
				<stop  offset="0.8734" style="stop-color:#C05C5D;stop-opacity:0.5984"/>
				<stop  offset="0.9147" style="stop-color:#D86364;stop-opacity:0.7295"/>
				<stop  offset="0.9566" style="stop-color:#E96768;stop-opacity:0.8624"/>
				<stop  offset="1" style="stop-color:#F26A6B"/>
			</linearGradient>
			<path class="st5" d="M24.3,13.2c6.1,0,11.2,5,11.3,11.2c0.1,6.2-4.9,11.4-11.2,11.4l-0.1,0c-6.1,0-11.2-5-11.3-11.2
				C13,18.4,18,13.3,24.2,13.2L24.3,13.2 M17,29.2l0.4-0.5l11-11.3l0.4-0.5l-0.6-0.3c-1.2-0.6-2.6-1-4-1l-0.1,0
				c-2.3,0-4.5,1-6.1,2.6c-1.6,1.7-2.5,3.9-2.5,6.2c0,1.4,0.4,2.8,1.1,4.1L17,29.2 M24.3,33.2l0.1,0c2.3,0,4.5-1,6.1-2.6
				c1.6-1.7,2.5-3.9,2.5-6.2c0-1.5-0.4-3-1.2-4.3l-0.3-0.5L31.1,20L20,31.4l-0.4,0.4l0.5,0.3C21.4,32.8,22.9,33.2,24.3,33.2
				 M24.3,12.7c-0.1,0-0.1,0-0.2,0c-6.5,0.1-11.7,5.4-11.6,11.9c0.1,6.4,5.3,11.6,11.8,11.6c0.1,0,0.1,0,0.2,0
				c6.5-0.1,11.7-5.4,11.6-11.9C36,17.9,30.8,12.7,24.3,12.7L24.3,12.7z M17.1,28.5c-0.6-1.1-1-2.5-1-3.8c-0.1-4.5,3.6-8.3,8.1-8.3
				c0,0,0.1,0,0.1,0c1.4,0,2.6,0.3,3.8,0.9L17.1,28.5L17.1,28.5z M24.3,32.7c-1.4,0-2.8-0.4-4-1l11.1-11.4c0.7,1.2,1.1,2.6,1.1,4.1
				c0.1,4.5-3.6,8.3-8.1,8.3C24.4,32.7,24.4,32.7,24.3,32.7L24.3,32.7z"/>
		</g>
		<g class="st6">
			<path class="st7" d="M24.1,12.7c-6,0.1-10.9,4.6-11.5,10.4c1.1,0.2,2.3,0.4,3.5,0.5c0.4-4.1,3.8-7.4,8.1-7.5
				c1.4,0,2.7,0.3,3.9,0.9L21.3,24c0,0,0.1,0,0.1,0c2.4,0,4.7-0.2,6.8-0.5l3.1-3.2c0.4,0.7,0.7,1.5,0.9,2.4c1.2-0.3,2.3-0.7,3.4-1.1
				C34.4,16.5,29.7,12.7,24.1,12.7z"/>
			<g>
				<linearGradient id="SVGID_3_" gradientUnits="userSpaceOnUse" x1="30.1033" y1="27.211" x2="17.5037" y2="14.6114">
					<stop  offset="0" style="stop-color:#C1282D;stop-opacity:0"/>
					<stop  offset="1" style="stop-color:#FDF8F8;stop-opacity:0.969"/>
				</linearGradient>
				<path class="st8" d="M24.3,13c5.2,0,9.8,3.5,11.1,8.5c-0.9,0.3-1.9,0.7-2.9,0.9c-0.2-0.8-0.5-1.5-0.9-2.2l-0.2-0.3l-0.2,0.2
					l-3.1,3.1c-2,0.3-4.1,0.5-6.2,0.5l6.3-6.4l0.2-0.2L28.1,17c-1.2-0.6-2.5-0.9-3.9-0.9l-0.1,0c-4.3,0.1-7.8,3.2-8.3,7.4
					c-1-0.1-2-0.3-3-0.5c0.7-5.7,5.6-9.9,11.3-10L24.3,13 M24.3,12.7c-0.1,0-0.1,0-0.2,0c-6,0.1-10.9,4.6-11.5,10.4
					c1.1,0.2,2.3,0.4,3.5,0.5c0.4-4.1,3.8-7.4,8.1-7.5c0,0,0.1,0,0.1,0c1.4,0,2.6,0.3,3.8,0.9L21.3,24c0,0,0.1,0,0.1,0
					c2.4,0,4.7-0.2,6.8-0.5l3.1-3.2c0.4,0.7,0.7,1.5,0.9,2.4c1.2-0.3,2.3-0.7,3.4-1.1C34.4,16.5,29.8,12.7,24.3,12.7L24.3,12.7z"/>
			</g>
		</g>
		<linearGradient id="SVGID_4_" gradientUnits="userSpaceOnUse" x1="35.8097" y1="18.3771" x2="12.4358" y2="18.3771">
			<stop  offset="0" style="stop-color:#FFFFFF"/>
			<stop  offset="0.6502" style="stop-color:#FFFFFF;stop-opacity:0.3586"/>
			<stop  offset="1" style="stop-color:#FFFFFF;stop-opacity:0"/>
		</linearGradient>
		<path class="st9" d="M28.2,23.5c-2.2,0.3-4.4,0.5-6.8,0.5c0,0-0.1,0-0.1,0l6.7-6.9c-1.2-0.6-2.5-0.9-3.9-0.9
			c-4.2,0.1-7.7,3.3-8.1,7.5c-1.2-0.1-2.4-0.3-3.5-0.5c0.7-5.8,5.5-10.4,11.5-10.4c5.6-0.1,10.3,3.7,11.6,8.9
			c-1.1,0.4-2.2,0.8-3.4,1.1"/>
		<linearGradient id="SVGID_5_" gradientUnits="userSpaceOnUse" x1="24.3325" y1="12.3791" x2="24.3325" y2="13.4761">
			<stop  offset="0" style="stop-color:#FFFFFF"/>
			<stop  offset="0.7882" style="stop-color:#FFFFFF;stop-opacity:0.3586"/>
			<stop  offset="1" style="stop-color:#FFFFFF;stop-opacity:0"/>
		</linearGradient>
		<path class="st10" d="M28.6,13.5c0-0.6-2.4-1.1-4.3-1.1c-1.8,0-4.3,0.5-4.3,1.1c0,0,2.4-0.3,4.3-0.3
			C26.2,13.2,28.6,13.5,28.6,13.5z"/>
	</g>
</g>
</svg>
