<?xml version="1.0" encoding="utf-8"?>
<!-- Generator: Adobe Illustrator 19.1.1, SVG Export Plug-In . SVG Version: 6.00 Build 0)  -->
<svg version="1.1" id="Layer_1" xmlns="http://www.w3.org/2000/svg" xmlns:xlink="http://www.w3.org/1999/xlink" x="0px" y="0px"
	 viewBox="0 0 48 48" style="enable-background:new 0 0 48 48;" xml:space="preserve">
<style type="text/css">
	.st0{fill:none;stroke:#F9ED32;stroke-linecap:round;stroke-miterlimit:10;}
	.st1{fill:#FFDE17;stroke:#FFFFFF;stroke-miterlimit:10;}
	.st2{fill:none;stroke:#603913;stroke-miterlimit:10;}
</style>
<circle class="svgcontainer" cx="24" cy="24" r="22" stroke="black" stroke-width="2" fill="white" />
<rect x="0" y="24" width="48" height="24" style="fill:black;" />
<line class="st0" x1="24" y1="22.9" x2="24" y2="3.1"/>
<line class="st0" x1="24" y1="22.9" x2="17.2" y2="4.3"/>
<line class="st0" x1="24" y1="22.9" x2="11.3" y2="7.7"/>
<line class="st0" x1="24" y1="22.9" x2="6.9" y2="13"/>
<line class="st0" x1="24" y1="22.9" x2="4.5" y2="19.5"/>
<line class="st0" x1="24" y1="22.9" x2="43.5" y2="19.5"/>
<line class="st0" x1="24" y1="22.9" x2="41.1" y2="13"/>
<line class="st0" x1="24" y1="22.9" x2="36.7" y2="7.7"/>
<line class="st0" x1="24" y1="22.9" x2="30.8" y2="4.3"/>
<g>
	<path class="st1" d="M24,9C15.7,9,9,15.7,9,24h30C39,15.7,32.3,9,24,9z"/>
</g>
<line class="st2" x1="0" y1="24" x2="48" y2="24"/>
</svg>
