<?xml version="1.0" encoding="utf-8"?>
<!-- Generator: Adobe Illustrator 19.1.1, SVG Export Plug-In . SVG Version: 6.00 Build 0)  -->
<svg version="1.1" id="Layer_1" xmlns="http://www.w3.org/2000/svg" xmlns:xlink="http://www.w3.org/1999/xlink" x="0px" y="0px"
	 viewBox="0 0 48 48" style="enable-background:new 0 0 48 48;" xml:space="preserve">
<style type="text/css">
	.st0{fill:none;stroke:#F9ED32;stroke-linecap:round;stroke-miterlimit:10;}
	.st1{fill:#FFDE17;stroke:#FFFFFF;stroke-miterlimit:10;}
	.st2{fill:none;stroke:#603913;stroke-miterlimit:10;}
</style>
<line class="st0" x1="24" y1="24" x2="24" y2="2"/>
<line class="st0" x1="24" y1="24" x2="20.2" y2="2.3"/>
<line class="st0" x1="24" y1="24" x2="16.5" y2="3.3"/>
<line class="st0" x1="24" y1="24" x2="13" y2="4.9"/>
<line class="st0" x1="24" y1="24" x2="9.9" y2="7.1"/>
<line class="st0" x1="24" y1="24" x2="7.1" y2="9.9"/>
<line class="st0" x1="24" y1="24" x2="4.9" y2="13"/>
<line class="st0" x1="24" y1="24" x2="3.3" y2="16.5"/>
<line class="st0" x1="24" y1="24" x2="2.3" y2="20.2"/>
<line class="st0" x1="24" y1="24" x2="45.7" y2="20.2"/>
<line class="st0" x1="24" y1="24" x2="44.7" y2="16.5"/>
<line class="st0" x1="24" y1="24" x2="43.1" y2="13"/>
<line class="st0" x1="24" y1="24" x2="40.9" y2="9.9"/>
<line class="st0" x1="24" y1="24" x2="38.1" y2="7.1"/>
<line class="st0" x1="24" y1="24" x2="35" y2="4.9"/>
<line class="st0" x1="24" y1="24" x2="31.5" y2="3.3"/>
<line class="st0" x1="24" y1="24" x2="27.8" y2="2.3"/>
<g>
	<path class="st1" d="M24,9C15.7,9,9,15.7,9,24h30C39,15.7,32.3,9,24,9z"/>
</g>
<line class="st2" x1="0" y1="24" x2="48" y2="24"/>
</svg>
